<svg xmlns="http://www.w3.org/2000/svg" viewBox="0 0 1560 660" font-family="Segoe UI, Arial, sans-serif">
  <defs>
    <marker id="tri" markerWidth="14" markerHeight="14" refX="12" refY="6" orient="auto">
      <path d="M1,1 L12,6 L1,11 Z" fill="#ffffff" stroke="#34495e"/>
    </marker>
    <marker id="vee" markerWidth="12" markerHeight="12" refX="9" refY="5" orient="auto">
      <path d="M1,1 L9,5 L1,9" fill="none" stroke="#34495e"/>
    </marker>
    <marker id="dia" markerWidth="16" markerHeight="12" refX="1" refY="5" orient="auto">
      <path d="M1,5 L8,1 L15,5 L8,9 Z" fill="#34495e" stroke="#34495e"/>
    </marker>
    <marker id="diaO" markerWidth="16" markerHeight="12" refX="1" refY="5" orient="auto">
      <path d="M1,5 L8,1 L15,5 L8,9 Z" fill="#ffffff" stroke="#34495e"/>
    </marker>
    <style>
      .box{fill:#ffffff;stroke:#34495e;stroke-width:1.3;}
      .abs{fill:#eef3f8;stroke:#34495e;stroke-width:1.3;}
      .itf{fill:#f3eefa;stroke:#34495e;stroke-width:1.3;}
      .n{font-size:13px;font-weight:600;fill:#1f2d3d;text-anchor:middle;}
      .s{font-size:10px;font-style:italic;fill:#7f8c8d;text-anchor:middle;}
      .gen{fill:none;stroke:#34495e;stroke-width:1.3;}
      .real{fill:none;stroke:#34495e;stroke-width:1.3;stroke-dasharray:5 4;}
      .comp{fill:none;stroke:#34495e;stroke-width:1.3;}
      .assoc{fill:none;stroke:#34495e;stroke-width:1.3;}
      .dep{fill:none;stroke:#7f8c8d;stroke-width:1.2;stroke-dasharray:4 4;}
      .ttl{font-size:18px;font-weight:700;fill:#1f2d3d;}
      .lg{font-size:11px;fill:#34495e;}
    </style>
  </defs>

  <rect x="0" y="0" width="1560" height="660" fill="#fbfcfd"/>
  <text x="24" y="30" class="ttl">Sokoban — Diagrama de clases (sin Visitor · Plan B clavePresentacion)</text>

  <!-- ================= VIEW ================= -->
  <g><rect class="box" x="20" y="44" width="180" height="44" rx="6"/><text class="s" x="110" y="62">«Observer»</text><text class="n" x="110" y="78">VentanaJuego</text></g>
  <g><rect class="box" x="20" y="118" width="180" height="30" rx="6"/><text class="n" x="110" y="137">PanelTablero</text></g>
  <g><rect class="box" x="20" y="158" width="180" height="30" rx="6"/><text class="n" x="110" y="177">PanelHud</text></g>
  <g><rect class="box" x="20" y="198" width="180" height="30" rx="6"/><text class="n" x="110" y="217">PaletaPresentacion</text></g>

  <!-- ================= CONTROLLER + COMANDOS ================= -->
  <g><rect class="box" x="240" y="44" width="180" height="40" rx="6"/><text class="n" x="330" y="69">Controlador</text></g>
  <g><rect class="itf" x="240" y="140" width="180" height="40" rx="6"/><text class="s" x="330" y="158">«interface»</text><text class="n" x="330" y="174">Command</text></g>
  <g><rect class="box" x="240" y="200" width="180" height="28" rx="6"/><text class="n" x="330" y="219">MoverCommand</text></g>
  <g><rect class="box" x="240" y="234" width="180" height="28" rx="6"/><text class="n" x="330" y="253">UndoCommand</text></g>
  <g><rect class="box" x="240" y="268" width="180" height="28" rx="6"/><text class="n" x="330" y="287">ReiniciarCommand</text></g>

  <!-- ================= PARTIDA ================= -->
  <g><rect class="box" x="470" y="44" width="190" height="44" rx="6"/><text class="s" x="565" y="62">«Facade · Observable»</text><text class="n" x="565" y="79">Juego</text></g>
  <g><rect class="box" x="470" y="138" width="190" height="44" rx="6"/><text class="s" x="565" y="156">«Observer»</text><text class="n" x="565" y="173">EstadoJuego</text></g>
  <g><rect class="box" x="470" y="232" width="190" height="44" rx="6"/><text class="s" x="565" y="250">«Template Method»</text><text class="n" x="565" y="267">ResolutorMovimiento</text></g>
  <g><rect class="box" x="470" y="312" width="190" height="40" rx="6"/><text class="s" x="565" y="329">«Caretaker»</text><text class="n" x="565" y="345">Historial</text></g>
  <g><rect class="box" x="470" y="368" width="190" height="40" rx="6"/><text class="s" x="565" y="385">«Memento»</text><text class="n" x="565" y="401">EstadoJuegoMemento</text></g>
  <g><rect class="box" x="470" y="424" width="190" height="40" rx="6"/><text class="s" x="565" y="441">«Observable»</text><text class="n" x="565" y="457">Temporizador</text></g>
  <g><rect class="itf" x="470" y="492" width="90" height="40" rx="6"/><text class="s" x="515" y="510">«interface»</text><text class="n" x="515" y="525">Observer</text></g>
  <g><rect class="itf" x="570" y="492" width="90" height="40" rx="6"/><text class="s" x="615" y="510">«interface»</text><text class="n" x="615" y="525">Observable</text></g>

  <!-- ================= NIVEL ================= -->
  <g><rect class="itf" x="690" y="44" width="190" height="44" rx="6"/><text class="s" x="785" y="62">«interface»</text><text class="n" x="785" y="79">Nivel</text></g>
  <g><rect class="box" x="690" y="128" width="190" height="28" rx="6"/><text class="n" x="785" y="147">NivelBase</text></g>
  <g><rect class="abs" x="690" y="170" width="190" height="40" rx="6"/><text class="s" x="785" y="187">«Decorator»</text><text class="n" x="785" y="203">NivelDecorator</text></g>
  <g><rect class="box" x="690" y="222" width="190" height="26" rx="6"/><text class="n" x="785" y="240">VisionLimitadaDecorator</text></g>
  <g><rect class="box" x="690" y="254" width="190" height="26" rx="6"/><text class="n" x="785" y="272">TiempoLimiteDecorator</text></g>
  <g><rect class="box" x="690" y="304" width="190" height="40" rx="6"/><text class="s" x="785" y="321">«Builder»</text><text class="n" x="785" y="337">NivelBuilder</text></g>
  <g><rect class="box" x="690" y="360" width="190" height="40" rx="6"/><text class="s" x="785" y="377">«Director»</text><text class="n" x="785" y="393">LectorTxt</text></g>
  <g><rect class="box" x="690" y="416" width="190" height="36" rx="6"/><text class="s" x="785" y="432">«Factory»</text><text class="n" x="785" y="447">CeldaFactory</text></g>
  <g><rect class="box" x="690" y="462" width="190" height="36" rx="6"/><text class="s" x="785" y="478">«Factory»</text><text class="n" x="785" y="493">EntidadFactory</text></g>

  <!-- ================= TABLERO ================= -->
  <g><rect class="box" x="910" y="44" width="170" height="40" rx="6"/><text class="n" x="995" y="69">Tablero</text></g>
  <g><rect class="box" x="910" y="158" width="170" height="40" rx="6"/><text class="s" x="995" y="175">«Memento»</text><text class="n" x="995" y="191">MementoTablero</text></g>
  <g><rect class="box" x="910" y="212" width="170" height="30" rx="6"/><text class="n" x="995" y="231">RegistroEnlaces</text></g>

  <!-- ================= PARENTS (dominio) ================= -->
  <g><rect class="abs" x="1120" y="44" width="160" height="44" rx="6"/><text class="s" x="1200" y="62">«abstract»</text><text class="n" x="1200" y="79">Celda</text></g>
  <g><rect class="itf" x="1120" y="164" width="160" height="44" rx="6"/><text class="s" x="1200" y="182">«interface»</text><text class="n" x="1200" y="198">EstadoMuro</text></g>
  <g><rect class="abs" x="1120" y="244" width="160" height="44" rx="6"/><text class="s" x="1200" y="262">«abstract»</text><text class="n" x="1200" y="279">Entidad</text></g>
  <g><rect class="abs" x="1120" y="368" width="160" height="44" rx="6"/><text class="s" x="1200" y="386">«abstract»</text><text class="n" x="1200" y="403">Caja</text></g>
  <g><rect class="box" x="1120" y="452" width="160" height="40" rx="6"/><text class="s" x="1200" y="469">«value object»</text><text class="n" x="1200" y="485">Posicion</text></g>
  <g><rect class="box" x="1120" y="508" width="160" height="38" rx="6"/><text class="s" x="1200" y="524">«enum»</text><text class="n" x="1200" y="539">Direccion</text></g>

  <!-- ================= CHILDREN (dominio) ================= -->
  <g><rect class="box" x="1320" y="44" width="180" height="26" rx="6"/><text class="n" x="1410" y="62">CeldaVacia</text></g>
  <g><rect class="box" x="1320" y="74" width="180" height="26" rx="6"/><text class="n" x="1410" y="92">Pared</text></g>
  <g><rect class="box" x="1320" y="104" width="180" height="26" rx="6"/><text class="n" x="1410" y="122">Destino</text></g>
  <g><rect class="box" x="1320" y="134" width="180" height="26" rx="6"/><text class="n" x="1410" y="152">TerrenoResbaladizo</text></g>
  <g><rect class="box" x="1320" y="164" width="180" height="28" rx="6"/><text class="n" x="1410" y="183">Cerrojo</text></g>
  <g><rect class="box" x="1320" y="198" width="180" height="28" rx="6"/><text class="n" x="1410" y="217">MuroAbiertoCerrado</text></g>
  <g><rect class="box" x="1320" y="232" width="180" height="24" rx="6"/><text class="n" x="1410" y="249">MuroAbierto</text></g>
  <g><rect class="box" x="1320" y="260" width="180" height="24" rx="6"/><text class="n" x="1410" y="277">MuroCerrado</text></g>
  <g><rect class="box" x="1320" y="312" width="180" height="26" rx="6"/><text class="n" x="1410" y="330">Jugador</text></g>
  <g><rect class="box" x="1320" y="344" width="180" height="24" rx="6"/><text class="n" x="1410" y="361">CajaNormal</text></g>
  <g><rect class="box" x="1320" y="372" width="180" height="26" rx="6"/><text class="n" x="1410" y="390">CajaFragil</text></g>
  <g><rect class="box" x="1320" y="404" width="180" height="26" rx="6"/><text class="n" x="1410" y="422">CajaLlave</text></g>

  <!-- ============ GENERALIZACIONES (peines) ============ -->
  <!-- Celda -> 6 hijos (triangulo en Celda) -->
  <path class="gen" d="M1280,66 L1300,66" marker-start="url(#tri)"/>
  <path class="gen" d="M1300,57 L1300,211"/>
  <path class="gen" d="M1300,57 L1320,57"/>
  <path class="gen" d="M1300,87 L1320,87"/>
  <path class="gen" d="M1300,117 L1320,117"/>
  <path class="gen" d="M1300,147 L1320,147"/>
  <path class="gen" d="M1300,178 L1320,178"/>
  <path class="gen" d="M1300,211 L1320,211"/>
  <!-- EstadoMuro -> MuroAbierto/Cerrado (realizacion) -->
  <path class="real" d="M1280,190 L1306,190" marker-start="url(#tri)"/>
  <path class="real" d="M1306,190 L1306,272"/>
  <path class="real" d="M1306,244 L1320,244"/>
  <path class="real" d="M1306,272 L1320,272"/>
  <!-- Entidad -> Jugador -->
  <path class="gen" d="M1280,266 L1298,266 L1298,325 L1320,325" marker-start="url(#tri)"/>
  <!-- Entidad -> Caja -->
  <path class="gen" d="M1200,288 L1200,368" marker-start="url(#tri)"/>
  <!-- Caja -> CajaNormal/Fragil/Llave -->
  <path class="gen" d="M1280,396 L1302,396" marker-start="url(#tri)"/>
  <path class="gen" d="M1302,356 L1302,417"/>
  <path class="gen" d="M1302,356 L1320,356"/>
  <path class="gen" d="M1302,385 L1320,385"/>
  <path class="gen" d="M1302,417 L1320,417"/>
  <!-- Command -> Mover/Undo/Reiniciar (realizacion) -->
  <path class="real" d="M420,160 L432,160" marker-start="url(#tri)"/>
  <path class="real" d="M432,160 L432,282"/>
  <path class="real" d="M432,214 L420,214"/>
  <path class="real" d="M432,248 L420,248"/>
  <path class="real" d="M432,282 L420,282"/>
  <!-- Nivel -> NivelBase / NivelDecorator (realizacion) -->
  <path class="real" d="M880,72 L890,72" marker-start="url(#tri)"/>
  <path class="real" d="M890,72 L890,190"/>
  <path class="real" d="M890,142 L880,142"/>
  <path class="real" d="M890,190 L880,190"/>
  <!-- NivelDecorator -> Vision / Tiempo -->
  <path class="gen" d="M880,200 L898,200" marker-start="url(#tri)"/>
  <path class="gen" d="M898,200 L898,267"/>
  <path class="gen" d="M898,235 L880,235"/>
  <path class="gen" d="M898,267 L880,267"/>
  <!-- NivelDecorator o-> Nivel (agregacion) -->
  <path class="comp" d="M690,196 L678,196 L678,80 L690,80" marker-start="url(#diaO)"/>

  <!-- ============ VIEW relaciones ============ -->
  <path class="comp" d="M110,88 L110,118" marker-start="url(#dia)"/>
  <path class="comp" d="M200,66 L210,66 L210,173 L200,173" marker-start="url(#dia)"/>
  <path class="dep"  d="M20,133 L12,133 L12,213 L20,213" marker-end="url(#vee)"/>
  <path class="assoc" d="M200,133 L240,70" marker-end="url(#vee)"/>
  <path class="assoc" d="M200,173 L240,82" marker-end="url(#vee)"/>
  <path class="real" d="M20,60 L6,60 L6,600 L508,600 L508,532" marker-end="url(#tri)"/>

  <!-- ============ CONTROLLER / COMMAND relaciones ============ -->
  <path class="assoc" d="M420,64 L470,72" marker-end="url(#vee)"/>
  <path class="dep"  d="M420,160 L470,98" marker-end="url(#vee)"/>

  <!-- ============ PARTIDA relaciones ============ -->
  <path class="comp" d="M565,88 L565,138" marker-start="url(#dia)"/>
  <path class="comp" d="M470,98 L460,98 L460,254 L470,254" marker-start="url(#dia)"/>
  <path class="comp" d="M560,44 L560,28 L995,28 L995,44" marker-start="url(#dia)"/>
  <path class="comp" d="M660,160 L670,160 L670,332 L660,332" marker-start="url(#dia)"/>
  <path class="comp" d="M660,172 L678,172 L678,444 L660,444" marker-start="url(#dia)"/>
  <path class="comp" d="M565,352 L565,368" marker-start="url(#dia)"/>
  <path class="comp" d="M660,388 L686,388 L686,576 L900,576 L900,178 L910,178" marker-start="url(#dia)"/>
  <path class="real" d="M470,160 L454,160 L454,564 L512,564 L512,532" marker-end="url(#tri)"/>
  <path class="real" d="M470,108 L448,108 L448,588 L568,588 L568,532" marker-end="url(#tri)"/>
  <path class="real" d="M600,464 L600,492" marker-end="url(#tri)"/>

  <!-- ============ NIVEL relaciones ============ -->
  <path class="dep"  d="M880,60 L910,60" marker-end="url(#vee)"/>
  <path class="assoc" d="M880,322 L886,322 L886,434 L880,434" marker-end="url(#vee)"/>
  <path class="assoc" d="M880,334 L892,334 L892,480 L880,480" marker-end="url(#vee)"/>
  <path class="dep"  d="M690,324 L672,324 L672,84 L690,84" marker-end="url(#vee)"/>
  <path class="dep"  d="M785,360 L785,344" marker-end="url(#vee)"/>
  <path class="dep"  d="M880,433 L900,433 L1106,433 L1106,78 L1120,78" marker-end="url(#vee)"/>
  <path class="dep"  d="M880,480 L1100,480 L1100,272 L1120,272" marker-end="url(#vee)"/>

  <!-- ============ TABLERO relaciones ============ -->
  <path class="comp" d="M1080,64 L1120,64" marker-start="url(#dia)"/>
  <path class="comp" d="M1080,74 L1094,74 L1094,396 L1120,396" marker-start="url(#dia)"/>
  <path class="comp" d="M1080,80 L1088,80 L1088,224 L1304,224 L1304,325 L1320,325" marker-start="url(#dia)"/>
  <path class="dep"  d="M995,84 L995,158" marker-end="url(#vee)"/>

  <!-- ============ DOMINIO relaciones ============ -->
  <path class="comp" d="M1120,70 L1110,70 L1110,472 L1120,472" marker-start="url(#dia)"/>
  <path class="comp" d="M1120,272 L1116,272 L1116,476 L1120,476" marker-start="url(#dia)"/>
  <path class="comp" d="M1320,212 L1280,190" marker-start="url(#dia)"/>
  <path class="assoc" d="M1500,178 L1512,178 L1512,212 L1500,212" marker-end="url(#vee)"/>
  <path class="assoc" d="M1500,417 L1522,417 L1522,178 L1500,178" marker-end="url(#vee)"/>
  <path class="dep"  d="M1200,492 L1200,508" marker-end="url(#vee)"/>

  <!-- ============ LEYENDA ============ -->
  <g transform="translate(24,612)">
    <text class="lg" x="0" y="0" font-weight="700">Referencias:</text>
    <line class="gen" x1="90" y1="-4" x2="130" y2="-4" marker-end="url(#tri)"/><text class="lg" x="136" y="0">herencia</text>
    <line class="real" x1="210" y1="-4" x2="250" y2="-4" marker-end="url(#tri)"/><text class="lg" x="256" y="0">realiza interfaz</text>
    <line class="comp" x1="380" y1="-4" x2="420" y2="-4" marker-start="url(#dia)"/><text class="lg" x="426" y="0">composicion</text>
    <line class="comp" x1="540" y1="-4" x2="580" y2="-4" marker-start="url(#diaO)"/><text class="lg" x="586" y="0">agregacion</text>
    <line class="assoc" x1="690" y1="-4" x2="730" y2="-4" marker-end="url(#vee)"/><text class="lg" x="736" y="0">asociacion</text>
    <line class="dep" x1="840" y1="-4" x2="880" y2="-4" marker-end="url(#vee)"/><text class="lg" x="886" y="0">dependencia</text>
  </g>
</svg>
